<?xml version="1.0" standalone="no"?>
<!DOCTYPE svg PUBLIC "-//W3C//DTD SVG 20010904//EN"
 "http://www.w3.org/TR/2001/REC-SVG-20010904/DTD/svg10.dtd">
<svg version="1.0" xmlns="http://www.w3.org/2000/svg"
 width="280.000000pt" height="280.000000pt" viewBox="0 0 280.000000 280.000000"
 preserveAspectRatio="xMidYMid meet">
<metadata>
Created by potrace 1.11, written by Peter Selinger 2001-2013
</metadata>
<g transform="translate(0.000000,280.000000) scale(0.100000,-0.100000)"
fill="#000000" stroke="none">
<path d="M620 2757 c-30 -23 -81 -69 -113 -102 -53 -54 -81 -84 -186 -205 -44
-50 -150 -273 -167 -350 -33 -154 -34 -436 -3 -690 6 -47 14 -128 18 -180 5
-52 13 -113 19 -135 6 -22 16 -77 22 -123 6 -45 18 -98 26 -117 14 -35 19
-116 8 -128 -9 -9 -10 -157 -2 -170 6 -9 8 -8 8 1 0 7 5 10 10 7 15 -9 12 -25
-4 -25 -8 0 -23 -8 -35 -17 -19 -16 -21 -22 -11 -53 19 -59 33 -84 56 -105 23
-21 28 -51 25 -155 -1 -39 -4 -51 -11 -40 -7 11 -8 5 -5 -20 2 -19 9 -36 15
-38 5 -2 10 -24 10 -48 0 -32 -4 -44 -15 -44 -8 0 -15 -4 -15 -10 0 -6 76 -10
208 -10 l208 0 18 30 c41 70 118 119 201 127 45 5 60 1 106 -23 30 -16 85 -53
122 -81 l69 -53 183 0 182 0 139 60 c77 34 148 66 159 72 53 31 150 74 284
127 253 101 280 111 310 111 62 0 183 -137 265 -297 21 -40 41 -73 47 -73 13
0 -30 87 -68 139 -18 24 -33 48 -33 53 0 12 -56 93 -90 131 -14 16 -33 41 -43
56 -17 27 -17 29 9 56 23 25 26 35 22 87 -3 41 0 62 9 70 7 6 13 23 13 39 0
16 4 29 9 29 22 0 34 231 14 277 -7 18 -13 56 -13 85 0 29 -7 74 -15 100 -11
38 -12 64 -4 120 18 138 20 147 40 153 23 8 25 23 3 32 -13 5 -12 8 5 27 28
30 54 102 47 129 -3 12 1 43 8 67 7 25 12 77 11 116 -2 40 1 91 5 115 8 40 3
87 -21 219 -18 96 -31 140 -40 134 -5 -3 -9 14 -9 38 0 24 -12 70 -26 103 -14
33 -28 69 -31 80 -4 11 -12 24 -20 28 -7 4 -13 17 -13 28 0 11 -7 22 -15 25
-8 4 -15 15 -15 25 0 10 -11 26 -25 35 -14 9 -25 23 -25 30 0 8 -4 14 -8 14
-5 0 -15 11 -22 25 -7 14 -18 25 -24 25 -15 0 -37 27 -53 63 -8 16 -20 27 -32
27 -11 0 -23 5 -26 10 -4 7 -286 10 -813 10 l-807 0 -55 -43z m407 -369 c7 19
31 -29 54 -110 10 -37 19 -72 19 -77 0 -8 -180 -54 -187 -47 -4 3 10 43 49
141 39 100 42 105 51 92 7 -9 10 -9 14 1z m153 -360 c50 -96 114 -187 126
-176 2 3 -7 36 -19 74 -13 38 -27 85 -30 104 -7 33 -5 31 25 -20 17 -30 47
-91 66 -135 41 -95 130 -255 141 -255 5 0 11 19 14 43 37 251 46 297 57 297 5
0 12 -26 15 -57 4 -32 10 -71 14 -88 7 -29 8 -29 30 29 12 33 27 82 32 110 18
86 49 186 59 186 5 0 12 -4 15 -10 3 -5 14 -10 24 -10 22 0 151 -136 151 -159
0 -12 -17 -21 -57 -31 -52 -14 -86 -40 -71 -56 4 -4 22 0 40 9 38 17 147 31
171 21 30 -11 18 -21 -33 -27 -63 -8 -175 -56 -161 -70 5 -5 7 -25 4 -44 l-6
-34 46 30 c47 32 94 40 115 19 7 -7 12 -31 12 -55 0 -38 -4 -45 -37 -67 -33
-23 -39 -24 -53 -11 -31 28 -40 18 -40 -43 0 -68 21 -114 72 -155 74 -60 150
-41 208 50 27 43 30 56 30 131 0 49 4 82 10 82 20 0 50 -65 50 -107 0 -54 17
-56 58 -9 36 42 42 34 42 -60 0 -118 -48 -355 -94 -466 -33 -78 -11 -90 49
-28 21 22 43 40 48 40 13 0 -3 -110 -23 -155 -31 -71 -73 -120 -180 -215 -81
-71 -128 -103 -205 -141 -122 -59 -206 -89 -254 -89 -24 0 -32 -3 -25 -10 7
-7 37 -6 95 4 46 8 86 13 88 10 7 -7 -19 -49 -65 -105 -24 -30 -44 -61 -44
-69 0 -11 -2 -12 -8 -2 -6 9 -12 5 -22 -13 -7 -14 -19 -25 -27 -25 -7 0 -13
-5 -13 -10 0 -18 -134 -150 -151 -150 -32 0 -88 30 -94 50 -3 11 -10 20 -15
20 -5 0 -9 30 -9 68 0 85 -8 141 -22 169 -9 17 -9 26 1 37 10 13 8 17 -14 26
-15 5 -39 13 -54 16 -89 22 -269 117 -363 192 l-84 67 -85 0 c-80 0 -88 2
-145 37 -67 41 -135 107 -159 155 -27 55 -17 253 13 253 5 0 16 -9 26 -20 18
-19 18 -22 2 -56 -17 -35 -23 -94 -9 -94 4 0 15 14 24 30 17 30 42 42 32 16
-3 -9 1 -13 13 -13 9 1 18 -5 18 -13 1 -8 7 -14 14 -12 7 1 11 -3 9 -10 -3 -7
-15 -14 -27 -16 -15 -2 -21 -9 -19 -20 3 -13 14 -17 51 -15 43 1 47 -1 47 -22
0 -30 14 -39 37 -24 15 9 28 6 68 -18 54 -31 153 -68 161 -61 2 3 -15 30 -40
60 -53 65 -96 128 -96 139 0 5 28 -9 62 -31 33 -22 65 -40 69 -40 5 0 -7 28
-27 63 -105 186 -136 259 -163 386 l-19 84 28 71 c16 39 52 143 80 231 82 249
87 262 124 284 44 27 99 40 166 38 l55 -2 55 -107z m1071 -245 c19 -12 31 -28
35 -51 4 -18 4 -35 1 -38 -2 -3 -21 17 -41 44 -49 67 -48 76 5 45z m-141 -232
c0 -17 -5 -33 -10 -36 -17 -11 -136 -14 -151 -4 -10 6 -5 9 18 9 22 0 43 10
65 30 18 16 43 30 56 30 18 0 22 -5 22 -29z m447 -393 c-3 -8 -6 -5 -6 6 -1
11 2 17 5 13 3 -3 4 -12 1 -19z"/>
<path d="M1000 1843 c-30 -8 -59 -19 -65 -25 -7 -7 -4 -9 10 -5 11 3 52 11 90
17 71 12 95 8 137 -22 30 -21 34 3 5 28 -33 28 -88 30 -177 7z"/>
<path d="M857 1798 c-24 -15 2 -18 34 -4 34 14 34 14 6 13 -15 -1 -33 -5 -40
-9z"/>
<path d="M985 1770 c-120 -30 -254 -112 -240 -147 3 -9 -1 -37 -10 -62 -8 -25
-16 -68 -17 -96 l-3 -50 33 3 c18 2 40 -2 48 -9 20 -17 31 -2 15 22 -30 49 37
202 101 232 65 29 76 30 103 3 33 -33 32 -59 -4 -96 -20 -21 -38 -30 -60 -30
-27 0 -34 5 -47 35 -22 53 -33 42 -27 -27 6 -90 28 -142 73 -178 34 -27 45
-30 105 -30 62 0 69 2 100 33 24 24 36 48 45 92 12 57 9 140 -5 178 -6 14 -4
16 10 10 16 -5 17 -3 10 18 -4 13 -8 37 -9 54 -1 25 -7 31 -41 41 -45 14 -135
16 -180 4z m195 -309 c0 -22 -25 -45 -42 -38 -7 2 -27 -1 -45 -9 -29 -11 -35
-10 -58 7 -37 30 -31 39 23 39 36 0 54 5 67 20 13 15 22 17 36 9 11 -5 19 -18
19 -28z"/>
<path d="M1425 1092 c-71 -25 -115 -62 -158 -133 -64 -109 -60 -163 17 -232
31 -28 86 -62 86 -53 0 3 -25 28 -55 57 -82 77 -77 86 52 94 67 5 129 4 166
-3 65 -12 207 -80 207 -99 0 -24 36 -13 68 20 68 70 63 196 -13 285 -29 33
-50 46 -102 62 -82 25 -198 26 -268 2z m253 -18 c17 -7 32 -17 32 -23 0 -24
-122 -30 -216 -11 -86 18 -87 38 -2 49 64 9 142 3 186 -15z"/>
<path d="M580 875 c0 -18 50 -45 82 -45 31 0 93 23 98 35 5 15 -27 18 -61 6
-22 -7 -40 -6 -70 4 -51 18 -49 18 -49 0z"/>
</g>
</svg>
